<svg id="图层_1" data-name="图层 1" xmlns="http://www.w3.org/2000/svg" viewBox="0 0 1617.33 203.56"><defs><style>.cls-1{fill:#990303;}.cls-2{isolation:isolate;}.cls-3{fill:#adacac;}.cls-4{fill:#333;}.cls-5{fill:#666;}.cls-6{fill:#fff;}</style></defs><title>logo</title><rect class="cls-1" width="197.26" height="197.26" rx="13.73" ry="13.73"/><g class="cls-2"><path class="cls-1" d="M458.84,229.12a239.19,239.19,0,0,1-38-13.82v13.82H373.35v22.45h68.22v19H373.35v51.81h81.17v17.27H263.68V322.38H344V270.57H275.77v-19H344V229.12H297.36V215.3a275.88,275.88,0,0,1-38.86,13.82V211q58.71-22.44,85.49-64.76h29.36q26.76,42.32,85.49,64.76ZM300,313.74q-9.51-17.26-10.36-34.54h25a95,95,0,0,0,8.64,34.54Zm58.72-139.89Q333.62,198,308.59,210.12H408.75A191,191,0,0,1,358.67,173.85Zm34.54,139.89a139.68,139.68,0,0,0,9.5-34.54h25q-2.6,20.73-10.36,34.54Z" transform="translate(-31.26 -143.86)"/><path class="cls-1" d="M549.51,279.2a171.33,171.33,0,0,1-19.86-31.95V347.42H503.74V255.89q-7.77,20.72-25.9,47.49v-28.5q15.54-30.21,25.9-78.58H482.15V179h21.59V148h25.91V179h19.86V196.3h-19q5.18,27.64,19,57.86Zm2.59-105.35V156.58H675.58v17.27H608.23l-2.59,19.86h57.85v44.91h17.27v18.13H550.37V238.62h24.18L578,211H556.42V193.71h23.31l1.73-19.86Zm6,168.39V273.16h111.4V314.6q.84,28.5-27.64,27.64Zm25.91-16.41h47.49q13,0,12.09-12.95V290.43H584.05ZM637.59,211H603.91l-3.46,27.64h37.14Z" transform="translate(-31.26 -143.86)"/><path class="cls-1" d="M702.35,196.3V179h19.86V148h24.18V179H762.8V196.3H746.39a328.85,328.85,0,0,0,16.41,57V279.2a275.91,275.91,0,0,1-16.41-31.09v99.31H722.21V253.29q-6.91,21.6-24.18,49.23V273.16a299.45,299.45,0,0,0,23.32-76.86ZM768,347.42v-190H894.91V317.2q.86,28.49-28.49,27.63H850V326.69h10.36q12.09.85,11.23-10.36V175.58H791.29V347.42ZM799.06,211V193.71h64.77V211Zm5.18,95.85V229.12h55.27v54.4q.86,24.18-23.32,23.31Zm18.14-16.4h9.5q10.35.87,9.5-10.37V246.39h-19Z" transform="translate(-31.26 -143.86)"/></g><rect class="cls-3" x="901.41" y="22.94" width="7.65" height="171.26"/><g class="cls-2"><path class="cls-4" d="M981.08,232.28q10.77-3.71,25.51-9.74v-26H982.82v-6.1h23.77v-23.2h6.68v79.32h-6.68V229.44q-7.94,3.21-22.87,9.36Zm48.62-65.2h6.68V195a175.19,175.19,0,0,0,21-12.67l4.13,5.94q-8.91,5.61-25.18,13.74v30.34c0,3.74,2.07,5.61,6.19,5.61h5.78q5.94,0,6.69-5.61.74-5.2,1.32-13.54,3.63,1.48,7,2.64-.82,7.84-1.81,13.37-1.57,9.42-11.64,9.41H1041q-11.31,0-11.31-11.14Z" transform="translate(-31.26 -143.86)"/><path class="cls-4" d="M1100.57,222.21l4.54,5q-11.05,8.33-22.2,15.27a37.89,37.89,0,0,0-3.8-5.53A168.23,168.23,0,0,0,1100.57,222.21Zm-21.21-44.65h38.13q-2.35-4.37-5.36-9l6-3q3.3,4.95,6.44,10.24l-3.3,1.73h38.79v5.78h-80.72Zm10.73,13.12h59v27.9h-6.43v-3.3h-19v21q0,9.78-9.33,9.9h-10.81c-.38-2.37-.8-4.59-1.24-6.69,3.69.34,6.88.5,9.58.5,3.46.11,5.2-1.68,5.2-5.36V215.28h-20.55V219h-6.44Zm52.58,5.7h-46.14v13.21h46.14Zm-10.07,31.37,3.88-5q11.3,6.69,21.7,13.54l-4.37,5.69Q1145.07,235.51,1132.6,227.75Z" transform="translate(-31.26 -143.86)"/><path class="cls-4" d="M1176.72,198.44h27.82v-17h-25.17v-5.61H1202a87.83,87.83,0,0,0-5.65-6.94l4.79-3.46c2.53,2.58,4.89,5.23,7.09,7.92l-3.46,2.48h21.09q3.21-4.67,6.56-10.24l6,3.3q-2.71,3.81-5.11,6.94h21.29v5.61h-25.17v17h27.81v5.62h-80.56Zm8.42-11.22,4.46-4.05q5.28,5,9.41,9.5l-4.79,4.29Q1190.51,192.58,1185.14,187.22Zm3.14,23.6h57.45v36.49h-6.28v-3.8h-44.9v3.8h-6.27Zm51.17,5.62h-44.9v8h44.9Zm-44.9,21.46h44.9v-8h-44.9Zm16-39.46h12.87v-17h-12.87Zm23.77-5.11a100.62,100.62,0,0,0,8.75-10.32l5.28,3.8q-4.62,5.52-9.41,10.4Z" transform="translate(-31.26 -143.86)"/><path class="cls-4" d="M1281.77,224.86l5.78,2.31a116.33,116.33,0,0,1-8.17,16.5q-2.73-1.56-5.54-3A76.4,76.4,0,0,0,1281.77,224.86Zm52.91-12,4.37-3.39q8.67,7.19,15.19,13.38l-5,4q-3.06-3.3-6.32-6.44-21.54.38-67.06,1.65l-.5-6q18.4,0,36.07-.16v-6.69h-23.69v2H1282V183.83h29.46v-5.69h-36.07v-5.28h36.07v-6.94h5.78v6.94h36.07v5.28h-36.07v5.69h29.47v25.34h-29.47v6.65q10.37-.12,20.47-.29Zm-46.89-18.66h23.69v-5.61h-23.69Zm0,10.16h23.69v-5.62h-23.69Zm5.7,20.63h6.27v9.16q0,5,5.7,5h17.33q5.7,0,6.52-3.72a51.73,51.73,0,0,0,1.07-8l6.11,2.47a71.69,71.69,0,0,1-1.4,7.84Q1333.52,245,1324,245h-20.06q-10.4,0-10.4-10.24Zm14.44-.16,4.46-3.31a100.29,100.29,0,0,1,9.74,9.91l-5,4Q1313.06,230.21,1307.93,224.86Zm33-36.24h-23.69v5.61H1341Zm0,15.77v-5.62h-23.69v5.62Zm-1.49,24.84,4.62-3.38q4.47,4.86,11,12.87l-5.2,3.8Q1345.9,236.91,1339.46,229.23Z" transform="translate(-31.26 -143.86)"/><path class="cls-4" d="M1404.64,239l20.55.33,27.49-.66q-.92,2.73-2.31,6.52l-27.32.17-19.65-.5q-14-.17-19.64-9.66a123.92,123.92,0,0,0-9.91,11.06l-3.38-6.85q7.3-7,10.56-10.11V201.5h-9.82v-6.11h16.18v35.28Q1392.46,238.89,1404.64,239Zm-23.85-71.31q4.2,5.11,11.55,15.6l-5.86,4.12q-6.69-10.47-11-16.17Zm22.94,66.77h-5.86V188h19.89q-6.18-3.18-12.79-6.35l3.38-4q6.48,3.13,12.18,6l14.73-7.72h-38.71v-5.28h49.61v5.53l-19.94,10.36L1429,188h17.7v37.31q0,9.4-8.66,9.41-4.29,0-9.33-.25a52.65,52.65,0,0,0-1.24-6.35,83.7,83.7,0,0,0,8.92.57q4.45,0,4.46-4.29v-4h-15.77v12.87h-5.86V220.32h-15.52Zm0-32.93h15.52v-8.26h-15.52Zm0,13.53h15.52v-8.25h-15.52Zm37.15-21.79h-15.77v8.26h15.77ZM1425.11,215h15.77v-8.25h-15.77Z" transform="translate(-31.26 -143.86)"/><path class="cls-4" d="M1468.83,214h12.54c1.21-2.09,2.4-4.24,3.55-6.44l5.94,1.9q-1.32,2.31-2.64,4.54h20.23v5.37a39.16,39.16,0,0,1-9.5,14.19q4.54,2.14,9.25,4.29l-3.63,5.7c-3.42-1.93-7-3.85-10.65-5.78q-9.33,6.69-23.53,10.57-1.32-2.64-2.8-5.78a67.15,67.15,0,0,0,20.38-7.84q-7.1-3.63-14.85-7.43,2.64-3.8,5.12-7.84h-9.41Zm.9-28.39h19V167.08h6.11v18.49h15.84V191h-15.84v5l2.47-2.81q7.68,5.63,12.88,9.91l-4,4.62q-4.54-4.29-11.39-9.66v9.41h-6.11V196a82.28,82.28,0,0,1-17.5,13.78q-1.58-2.38-3.55-5A91.81,91.81,0,0,0,1486.74,191h-17Zm2.15-12.8,4.7-3.22q3.72,4.55,7.68,9.74l-5.12,3.64Q1475.51,177.56,1471.88,172.77Zm9.33,52.58q5.85,2.64,12,5.53a35.38,35.38,0,0,0,8.91-11.47H1485C1483.74,221.44,1482.47,223.43,1481.21,225.35ZM1507,169.14l5.12,3.39q-4.55,5.94-9.08,11c-1.27-1.1-2.75-2.25-4.46-3.46Q1502.83,175,1507,169.14Zm15-2.8,6.6,1a142.77,142.77,0,0,1-4,14.94h25.26v5.61h-5.2q-2.07,24.27-10.57,38.54a52.82,52.82,0,0,0,17,14.86c-1.77,2.42-3.25,4.6-4.46,6.52a64,64,0,0,1-16.76-15.52,79.27,79.27,0,0,1-18.07,16.35,46.38,46.38,0,0,0-4.71-5.2,73.24,73.24,0,0,0,18.74-17.25,73.25,73.25,0,0,1-8.83-26.66,63.88,63.88,0,0,1-3.64,5.69,66.35,66.35,0,0,0-4.12-5.28Q1518.76,186.15,1522,166.34Zm16,21.54h-15.43c-.28.71-.58,1.4-.91,2.06q1.49,17.51,8.25,30Q1536.52,207.86,1538,187.88Z" transform="translate(-31.26 -143.86)"/><path class="cls-4" d="M1565.53,210.41q5.87-1.6,11.39-3.26V188.29h-10.4v-5.94h10.4V166.58H1583v15.77h9v5.94h-9v17q3.92-1.23,7.68-2.51a51.2,51.2,0,0,0,.49,6.43c-2.83.91-5.56,1.81-8.17,2.69v25q0,9.33-8.17,9.5-2.56.08-7.59-.09-.35-3.3-1-6.85a69.23,69.23,0,0,0,6.93.5c2.47,0,3.71-1.41,3.71-4.21V213.88q-5.65,1.89-10.56,3.63Zm37,8.34h17V208.27h-19.23q-.9,25.38-11.72,39.2c-1.32-1.7-2.81-3.44-4.46-5.2q10.32-12.71,10.32-39V171h48.7V195h-5.94v-2.56h-36.82v10.23h19.15V194h6v8.66h21.79v5.62h-21.79v10.48h17.16v27.9h-5.94v-4.79h-28.23v4.79h-5.94Zm34.67-42.26h-36.82V187h36.82Zm-.5,47.71h-28.23v12.29h28.23Z" transform="translate(-31.26 -143.86)"/></g><g class="cls-2"><path class="cls-5" d="M985.69,319.91h33.08l.61-8.4H991.84V308l3.07-21.48h-7.47V283h42.87v3.52H999l-1,7.18h26.78l-1.88,26.17h9.3v3.42H985.69Zm34.71-22.66H997.48L995.94,308h23.68Z" transform="translate(-31.26 -143.86)"/><path class="cls-5" d="M1035.71,316.15l3.72-.61V285.88h-3.18v-3.42h21.1v3.42h-3.67V313l4.45-.83a28.13,28.13,0,0,0,.34,3.42l-4.79.95v10.33h-3.56V317.3q-6.27,1.26-13.48,2.75ZM1043,293h7.13v-7.12H1043Zm0,10.45h7.13v-7.13H1043Zm7.13,10.23v-6.91H1043v8.16C1045.38,314.52,1047.76,314.11,1050.12,313.68Zm5.27-11.94h11.28c.13-2.37.19-5.32.17-8.83h-10.08v-3.62h13.18q2.2-3.51,5.77-10.3l3.8,1.81q-3,4.71-5.64,8.49h8.18v3.62h-11.42q0,5.29-.17,8.83h13.25v3.62h-12.77q3.74,11.67,13.46,17.33a28.66,28.66,0,0,0-3.13,3.66,35.19,35.19,0,0,1-12.21-16.45,29,29,0,0,1-11.86,16.94c-1-1.27-1.92-2.33-2.74-3.17a25,25,0,0,0,11.92-18.31h-11Zm3.23-20.75,2.83-2a62.8,62.8,0,0,1,5.51,7.28l-3.17,2.19Q1061.74,285.1,1058.62,281Z" transform="translate(-31.26 -143.86)"/><path class="cls-5" d="M1094.73,292l2.88-1.52c1.94,3.08,3.86,6.22,5.79,9.43a103,103,0,0,0,4.07-10.16l3.32,1.22a128.92,128.92,0,0,1-5.32,12.48q2.8,4.78,5.57,9.79l-3.32,1.76c-1.35-2.58-2.75-5.16-4.18-7.77a107.24,107.24,0,0,1-6.47,10.65l-2.93-1.69V326.4h-3.66V281.77h41.6v39.16q0,5.24-5.61,5.23c-2.09,0-4.58,0-7.47-.1-.17-1-.39-2.31-.69-3.81,2.74.23,5.06.34,7,.34,2.09,0,3.13-.89,3.13-2.68V285.29h-34.28V316a122.24,122.24,0,0,0,7.4-12.33Q1098.3,297.9,1094.73,292Zm16.26,2.34,2.83-1.66q2.45,4,5,8.37a97.39,97.39,0,0,0,4.76-11l3.33,1.27a142.93,142.93,0,0,1-6,13.28q3.09,5.28,6.38,11.19l-3.27,1.85q-2.44-4.64-5.08-9.37a121.29,121.29,0,0,1-6.45,10.3l-3-1.9a136.79,136.79,0,0,0,7.43-12Q1114.09,299.59,1111,294.37Z" transform="translate(-31.26 -143.86)"/><path class="cls-5" d="M1139.92,321.57h20.71V309.65h-17.48v-3.56h17.48v-6.84h-12.7v-3.41c-2.31,1.46-4.82,2.93-7.52,4.39a27.08,27.08,0,0,0-2.44-3.66q16.26-7.62,23-17.48h5.32l-1.12,1.37q7.75,9.9,22,15.42-1.32,1.86-2.59,3.91a50.78,50.78,0,0,1-7.37-3.86v3.32h-12.65v6.84h17.39v3.56h-17.39v11.92h20.8v3.61h-45.41Zm5.47-8.94,2.88-2.29q3.57,3.62,7,7.52l-3.32,2.63Q1149,316.64,1145.39,312.63Zm17.24-29.39q-5,6.35-14.5,12.45h28.66A63.6,63.6,0,0,1,1162.63,283.24Zm6.93,35a67.24,67.24,0,0,0,6.69-8l3.42,2.2q-3.42,4.24-7.18,8.15Z" transform="translate(-31.26 -143.86)"/><path class="cls-5" d="M1191.17,281.29H1215v3.12h-23.78Zm3.62,45.41h-3.23v-25h23.2v20.36q0,4.59-4.84,4.59h-3.76a22.73,22.73,0,0,0-.73-3.37c1.56.13,2.83.19,3.81.19,1.53,0,2.3-.7,2.3-2.1V304.72h-16.75Zm-1.22-38.92h19.23v11.77h-3.22v-1.27h-12.79v1.27h-3.22Zm2.1,24.76h7.52c1.85-3.36,3.06-5.68,3.61-7l2.88,1.37c-1.34,2.18-2.52,4.05-3.56,5.62h4.44v2.92h-5.91v10.16h-3V315.46h-5.95Zm.87-5.33,2.35-1.46a37.2,37.2,0,0,1,3.17,5l-2.54,1.56Q1198.11,309.7,1196.54,307.21Zm13-16.5h-12.79v4.64h12.79Zm21.63,21.83,3.27-.93q2.2,7.47,3.72,14.06l-3.42.88c-.2-.88-.41-1.76-.64-2.64q-9.27,1-17.43,2l-.73-4.05c3.06-.19,6.07-.41,9-.63V308h-4v1.61h-3.57V288.12H1225v-8.74h3.42v8.74h7.37V308h-7.37v12.89c1.66-.13,3.29-.24,4.88-.34C1232.69,318,1232,315.3,1231.21,312.54ZM1221,304.82h4V291.34h-4Zm11.52,0V291.34h-4v13.48Z" transform="translate(-31.26 -143.86)"/><path class="cls-5" d="M1240.71,302.48a80.69,80.69,0,0,0,10.8-23.54l3.8,1.08a115.14,115.14,0,0,1-4.63,12.1v35h-3.62V299.28a65.94,65.94,0,0,1-4.73,7.2C1241.8,305.11,1241.27,303.78,1240.71,302.48Zm14.12-17h15.94q-1.47-2.5-3-5l3.27-1.71q1.76,2.64,3.47,5.57l-2.13,1.12h16.87V289h-34.37Zm2.68,8h28.81v3.32h-28.81Zm0,7.86h28.81v3.32h-28.81Zm.54,7.91h27.78v17.87h-3.76v-2.92h-20.26v2.92h-3.76Zm24,3.32h-20.26v8.3h20.26Z" transform="translate(-31.26 -143.86)"/><path class="cls-5" d="M1296.31,311.71l3.57,1.22c-1.44,3.9-2.93,7.47-4.5,10.69-1-.46-2.24-.93-3.61-1.42A64.27,64.27,0,0,0,1296.31,311.71Zm2.15-28h11.94a51.06,51.06,0,0,0,1.73-5l3.81,1c-.54,1.39-1.1,2.72-1.69,4h19.46v26.66H1330v-1.52h-27.73v1.52h-3.76ZM1330,287h-27.73v4.05H1330Zm-27.73,11.28H1330v-4.1h-27.73Zm0,7.22H1330v-4.1h-27.73Zm1.37,6.69h3.71v7.18q0,3,3.22,3h10.84c2.6,0,4.12-.9,4.54-2.69a43.33,43.33,0,0,0,1-5.32c1.2.49,2.47,1,3.81,1.42q-.6,3.36-1.18,5.42-1.12,4.63-7.27,4.64h-12.31q-6.35,0-6.34-6.06Zm8.54-.53,2.64-2.25q3,2.73,6.54,6.54l-3,2.54Q1314.72,314.25,1312.13,311.66Zm19.19,1.61,2.83-2.2q3.46,3.76,7.08,8.25l-3.12,2.39Q1334.78,317.23,1331.32,313.27Z" transform="translate(-31.26 -143.86)"/><path class="cls-5" d="M1346.68,289.44h18.8V278.79h4.2v10.65h19v22.27h-4v-2.64h-15v18.16h-4.2V309.07h-14.79v2.64h-4Zm4,16h14.79V293.05h-14.79Zm34-12.41h-15v12.41h15Z" transform="translate(-31.26 -143.86)"/><path class="cls-5" d="M1422.35,279.58l-1,1.41a45.71,45.71,0,0,0,21.88,18.22,49.65,49.65,0,0,0-2.64,4.24q-14.36-7.51-21.68-19.33-7.32,11.33-22,20.07a32.09,32.09,0,0,0-2.64-4.25,53.35,53.35,0,0,0,22.8-20.36Zm-14.85,19.09h3.91q0,16-2.44,20.55-2,4.2-8.3,8.6a35.3,35.3,0,0,0-2.84-3.27c3.91-2.48,6.45-4.93,7.62-7.38Q1407.51,313.42,1407.5,298.67Zm18-.1h4v28.37h-4Z" transform="translate(-31.26 -143.86)"/><path class="cls-5" d="M1449.28,281.68h13.77v39.6q0,4.88-4.54,4.88c-1.66,0-3.21-.05-4.64-.15-.13-1-.33-2.13-.59-3.47a28.58,28.58,0,0,0,4.3.4,1.77,1.77,0,0,0,2-2V309.7h-6.83q.13,11.24-4.06,17.14a16.35,16.35,0,0,0-2.68-2.73q3.27-5,3.27-14.26Zm10.3,3.17h-6.83v9.37h6.83Zm-6.83,21.83h6.83v-9.43h-6.83Zm14.35-24.81h24.12q-.24,4-.39,6.25-.39,7.58-7.71,7.42-2,0-6.3-.19c-.2-1.27-.41-2.56-.64-3.86q3.61.43,6.5.54c2.8.09,4.31-1.24,4.54-4,.1-.84.18-1.77.24-2.78h-16.65V299.3h20.61v2.88a35.57,35.57,0,0,1-7.16,14.92,29.36,29.36,0,0,0,10.48,6.23q-1.66,1.95-2.83,3.51a35.36,35.36,0,0,1-10.18-7,40.41,40.41,0,0,1-8.77,6.49c-.62-1.07-1.29-2.14-2-3.22a33.87,33.87,0,0,0,8.42-6,32.65,32.65,0,0,1-6.27-14.69h-2.3v24.26h-3.71Zm20.46,20.61h-11.11a28.87,28.87,0,0,0,5.4,12A31,31,0,0,0,1487.56,302.48Z" transform="translate(-31.26 -143.86)"/><path class="cls-5" d="M1511.17,278.36l3.67,1.56c-.74,1.2-1.5,2.37-2.3,3.51H1539v3.28a39.66,39.66,0,0,1-12.43,9.64,70.91,70.91,0,0,0,19.56,3.69q-1.58,2.19-2.74,4.1-12.72-1.69-21.34-5.69a107.44,107.44,0,0,1-23.43,6.52c-.56-1-1.22-2.15-2-3.42a104.08,104.08,0,0,0,21.24-5.32,30.13,30.13,0,0,1-8.91-8,67.22,67.22,0,0,1-8.37,8.33c-1-1-1.87-1.92-2.69-2.64A48.44,48.44,0,0,0,1511.17,278.36ZM1500.92,307h14.21c.23-1.58.42-3.34.58-5.27h4c-.21,1.93-.43,3.69-.66,5.27h19.7q-.48,8.75-.92,12.25-.8,6.88-8.21,6.94-2.88,0-8.64-.2c-.2-1.2-.44-2.55-.73-4,3.74.33,6.83.5,9.27.54q4.15-.1,4.59-4.2c.3-2.44.51-5.05.64-7.81h-16.29q-2.58,11.73-18.18,17-1.12-1.62-2.4-3.27,14-4.54,16.61-13.77h-13.53Zm32.81-20.31h-21.8a30.49,30.49,0,0,0,10.11,7.76A43,43,0,0,0,1533.73,286.66Z" transform="translate(-31.26 -143.86)"/><path class="cls-5" d="M1548.9,305.36h21.63V285H1551.1v-3.76h43.16V285h-19.63v20.41h21.78v3.76h-21.78v18h-4.1v-18H1548.9Zm4.69-15,3.07-2.15a128.32,128.32,0,0,1,9.43,12.35l-3.47,2.59A137.88,137.88,0,0,0,1553.59,290.32Zm24.85,10.15a79.86,79.86,0,0,0,9.67-12.5l3.66,2.35a137.07,137.07,0,0,1-10.3,12.69Z" transform="translate(-31.26 -143.86)"/><path class="cls-5" d="M1634.08,285.29q7.67,7.13,14.51,14.6l-3.47,2.88q-1.95-2.29-4-4.52-21.92.93-33.49,1.59a33.13,33.13,0,0,0-5.18.78l-1.61-4.2a14.15,14.15,0,0,0,4-2.29,98.21,98.21,0,0,0,15.29-15.77l3.66,2.24a129.65,129.65,0,0,1-15.28,15.28q15-.45,29.44-1.07-3.35-3.63-6.79-7.08Zm7.18,19.38v22.17h-4v-3.22H1610.4v3.22h-4V304.67Zm-4,3.62H1610.4V320.1h26.86Z" transform="translate(-31.26 -143.86)"/></g><rect class="cls-6" x="82.81" y="20.11" width="31.64" height="105.51"/><path class="cls-6" d="M195.29,320h1a33.64,33.64,0,0,1-33.64-33.64h0V214.43h32.64Z" transform="translate(-31.26 -143.86)"/><path class="cls-6" d="M63.88,320h1c18.58,0,32.64-15.06,32.64-33.64V214.43H64.88Z" transform="translate(-31.26 -143.86)"/></svg>