<svg id="图层_1" data-name="图层 1" xmlns="http://www.w3.org/2000/svg" viewBox="0 0 1000 1000"><defs><style>.cls-1{fill:#990303;}</style></defs><title>画板 1</title><path class="cls-1" d="M500.9,181.35c-171.31,0-310.17,138.47-310.17,309.26a307.91,307.91,0,0,0,87.38,215.13C302.7,727.8,329.5,747.26,359,762.56c16,8.28,33.74,16.64,52.29,24.21a312.86,312.86,0,0,0,89.62,13.14c171.3,0,310.15-138.48,310.15-309.3S672.2,181.35,500.9,181.35ZM331.88,553c175.74,148,338.06,0,338.06,0s0,153.07-169,153.07S331.88,553,331.88,553Zm169-467.63c-190.8,0-350.88,131.07-394.63,307.91,0,0-109.47,17.28-104.64,127.06S121.94,636.81,121.94,636.81c1.38,3.53,25.65-3.42,34.36-4.9a369.29,369.29,0,0,1-28-141.29c0-205.19,166.82-371.52,372.59-371.52S873.46,285.43,873.46,490.62c0,163.72-106.16,302.64-253.59,352.1-9.52,3.22-19.52-1.07-19.52-1.07s-25-4.66-56.3,4.17c-15.43,4.4-22,20.81-21.12,35.17,1.14,17.11,7.67,29.42,25.61,32.13,23.09,3.61,55.93,7.72,68.33-16.92,3.36-6.7,7-19.1,14.91-21.76A407.21,407.21,0,0,0,880.13,636.77s114.83-13.4,118.22-119-102.71-124.2-102.71-124.2C852,216.59,691.83,85.33,500.9,85.33Z"/></svg>