<svg id="图层_1" data-name="图层 1" xmlns="http://www.w3.org/2000/svg" viewBox="0 0 1000 1000"><defs><style>.cls-1{fill:#11cd6e;}</style></defs><title>画板 1</title><path class="cls-1" d="M683.85,455.45,487.65,646s0,0,0,0l-2,1.91-.22-.19A43.47,43.47,0,0,1,427.27,646L321.66,543.41a40.38,40.38,0,0,1,0-58.34,43.39,43.39,0,0,1,60.05,0l75.74,73.57L623.79,397.06a43.42,43.42,0,0,1,60.06,0,40.44,40.44,0,0,1,0,58.39ZM500.33,841.67c188.52,0,341.34-152.82,341.34-341.34S688.85,159,500.33,159,159,311.82,159,500.33,311.82,841.67,500.33,841.67Zm0,0"/></svg>